<svg height="819pt" preserveAspectRatio="xMidYMid meet" viewBox="0 0 813 819" width="813pt"
     xmlns="http://www.w3.org/2000/svg">
    <g transform="matrix(.1 0 0 -.1 0 819)">
        <path d="m3935 8140c-370-4-424-7-451-22-37-20-91-80-106-117-8-20-138-622-138-639 0-9-135-63-239-96-154-49-315-108-440-163-143-62-156-60-303 44-62 44-165 119-228 166-63 48-133 96-156 107-48 24-120 26-170 5-20-8-128-106-262-237-125-123-310-302-411-398-181-173-213-214-226-280-11-61 19-123 172-357 172-261 183-281 183-321 0-16-34-97-78-183-73-144-173-370-222-502-40-108-28-103-335-149-343-51-365-57-421-114-24-25-48-62-54-82-10-34-34-1187-25-1215 2-7 6-24 9-40 8-33 68-102 107-122 15-8 150-37 299-65 150-28 281-55 291-61 21-11 49-62 69-124 28-89 114-295 195-468 47-101 85-193 85-206 0-39-35-93-200-306-90-116-171-228-181-250-29-63-25-140 11-200 36-63 841-877 890-901 43-21 126-22 165-1 17 8 62 41 100 72 85 71 241 189 314 238 78 54 98 51 271-37 187-95 362-172 525-231 173-62 212-85 224-133 6-20 31-161 56-312s48-283 51-293c8-27 63-86 95-103 24-12 125-14 641-14 572 0 616 2 653 19 46 21 99 70 121 113 9 17 35 162 59 331 35 238 48 304 62 318 10 9 65 32 123 49 170 52 395 144 586 240 98 50 188 90 199 90 34 0 81-29 290-181 111-81 216-154 235-164 40-21 113-22 157-4 49 21 863 852 891 910 29 60 29 136 1 192-12 23-79 115-148 205-201 260-226 298-225 340 0 24 23 85 66 177 78 166 132 298 183 455 47 144 59 166 93 184 15 7 106 28 202 46 409 75 422 79 484 151l36 43v195c0 187-12 560-29 923-7 157-9 169-34 207-51 77-77 85-416 131-167 22-312 45-321 50-10 5-29 38-43 72-14 35-52 126-83 203s-95 216-142 309c-76 152-84 173-79 212 4 36 34 89 165 286 176 265 194 306 173 384-6 22-25 61-42 87-46 69-790 798-836 819s-112 23-156 4c-19-7-109-71-203-142-292-222-311-234-358-234-25 0-71 14-121 36-150 67-330 136-492 189-89 30-171 59-182 65-27 14-33 39-91 363-30 164-58 294-69 316-26 50-91 107-138 120-21 6-87 10-148 9-60-1-299-5-530-8zm335-1440c338-30 632-112 945-265 446-217 795-525 1067-940 160-244 272-497 343-779 61-241 79-385 79-646 0-445-87-817-284-1210-206-411-505-750-887-1003-446-297-919-437-1473-437-435 0-804 83-1175 266-525 257-937 673-1201 1209-197 402-286 811-271 1250 6 183 16 270 48 434 133 674 558 1296 1150 1687 339 223 772 381 1164 423 206 22 330 25 495 11z"/>
        <g fill="#f80">
            <path d="m4981 5359c-247-30-470-152-607-332-129-170-228-427-266-692-19-134-16-456 6-580 94-523 361-858 761-956 128-32 334-32 458-1 288 72 475 225 616 509 96 190 145 390 160 641 26 454-60 802-266 1076-117 156-277 261-474 311-112 28-278 38-388 24zm265-480c59-18 77-30 135-88 141-141 202-357 203-711 0-188-13-284-59-445-73-258-191-370-401-383-176-10-295 61-378 225-43 87-91 236-107 338-16 99-16 391 0 505 27 191 94 370 170 452 102 112 281 155 437 107z"/>
            <path d="m2780 5341c-271-58-479-235-556-475-39-118-45-323-15-450 28-116 80-213 153-287 101-100 189-143 553-267 259-89 336-125 402-185 82-75 100-150 62-252-55-148-246-230-446-192-188 36-275 121-292 287l-6 65h-245-245l1-100c2-131 17-202 66-305 74-155 216-265 442-341 210-72 415-85 616-40 191 43 320 109 437 226 66 66 90 98 122 166 56 116 72 184 78 325 12 275-83 477-284 604-103 66-168 91-478 186-302 93-395 151-429 265-20 67-20 114 1 178 44 138 182 204 373 180 97-12 162-42 213-99 45-50 64-96 74-180l6-50h253 254v46c0 133-46 289-116 396-98 148-279 250-527 299-129 25-347 25-467 0z"/>
        </g>
    </g>
</svg>